<?xml version="1.0" encoding="UTF-8"?>
<!DOCTYPE svg PUBLIC "-//W3C//DTD SVG 1.1//EN" "http://www.w3.org/Graphics/SVG/1.1/DTD/svg11.dtd">
<!-- Creator: CorelDRAW X7 -->
<?xml-stylesheet href="leti_map.css" type="text/css"?>
<svg xmlns="http://www.w3.org/2000/svg" xml:space="preserve" width="1024px" height="768px" version="1.1" style="shape-rendering:geometricPrecision; text-rendering:geometricPrecision; image-rendering:optimizeQuality; fill-rule:evenodd; clip-rule:evenodd"
viewBox="0 0 102400 76800"
 xmlns:xlink="http://www.w3.org/1999/xlink">
 <g id="Слой_x0020_1">
  <metadata id="CorelCorpID_0Corel-Layer"/>
  <g id="_5">
   <polygon class="fil0 str0" points="77657,45298 78199,45298 78199,44937 78921,44937 78921,48189 83799,48189 83799,45298 85244,45298 85244,48189 89941,48189 89941,47105 90664,47105 91387,48911 93916,47827 95903,47827 95903,49815 95361,49815 95361,54512 91387,54512 91387,55054 90664,55054 90664,54331 90303,54331 90303,55054 85244,55054 85244,55957 84522,55957 84522,55054 84160,55054 84160,55957 81451,55957 81451,56860 81812,56860 81812,58848 85244,58848 85244,62822 81451,62822 81451,64629 95723,64629 95723,65532 96626,65532 96626,66435 97529,66435 97529,67519 95723,67519 95723,68061 96264,68061 96264,68422 96987,68422 96987,69326 95723,69326 95723,70048 71876,70048 71876,70410 72418,70410 72418,71313 71695,71313 71695,70771 71153,70771 71153,71313 70430,71313 70430,70410 70972,70410 70972,70048 60855,70048 60855,69326 59591,69326 59591,68422 60133,68422 60133,68061 61036,68061 61036,67519 59230,67519 59230,66616 59952,66616 59952,65713 60675,65713 60675,64809 66998,64809 66998,62822 63023,62822 63023,59209 66456,59209 66456,56860 67901,56860 67901,55054 67359,55054 67359,55776 66456,55776 66456,55054 61397,55054 61397,54331 60855,54331 60855,55415 59952,55415 59952,54512 55255,54512 55255,55054 54352,55054 54352,53789 52906,53789 52906,53608 51823,53608 51823,52525 50919,52525 50919,50176 52184,50176 52184,48369 54713,48369 54713,47105 55616,47105 55616,47466 61036,47466 61036,46924 61759,46924 61759,48189 66456,48189 66456,46743 67901,46743 67901,42408 69527,42408 69527,42769 72598,42769 72598,46201 73502,46201 73502,48369 77657,48369 "/>
   <polygon class="fil1 str0" points="94458,66616 94458,66435 97529,66435 97529,67519 94458,67519 "/>
   <polygon class="fil1 str0" points="94819,66977 95180,66977 95180,67158 94819,67158 "/>
   <polygon class="fil1 str0" points="95723,66977 95903,66977 95903,67158 95723,67158 "/>
   <polygon class="fil1 str0" points="96445,66977 96987,66977 96987,67158 96445,67158 "/>
   <polygon class="fil1 str0" points="59591,66977 60133,66977 60133,67158 59591,67158 "/>
   <polygon class="fil1 str0" points="60675,66977 60855,66977 60855,67158 60675,67158 "/>
   <polygon class="fil1 str0" points="61397,66977 61759,66977 61759,67158 61397,67158 "/>
   <polygon class="fil1 str0" points="67540,62822 67901,62822 67901,64629 67540,64629 "/>
   <polygon class="fil1 str0" points="66817,59209 67720,59209 67720,57222 66817,57222 "/>
   <polygon class="fil1 str0" points="68082,55776 72779,55776 72779,56318 73502,56318 73502,55776 78199,55776 78199,56318 78921,56318 78921,55776 79644,55776 79644,59209 81812,59209 81812,56860 81451,56860 81451,55957 81451,55596 81451,55415 78921,55415 78921,55054 78199,55054 78199,55415 73502,55415 73502,55054 72779,55054 72779,55415 68082,55415 "/>
   <polygon class="fil1 str0" points="80005,56860 81089,56860 81089,56318 80005,56318 "/>
   <polygon class="fil1 str0" points="80005,57222 81270,57222 81270,58848 80005,58848 "/>
   <polygon class="fil1 str0" points="80005,62822 81089,62822 81089,64809 80005,64809 "/>
   <polygon class="fil1 str0" points="66998,64809 80005,64809 "/>
   <polygon class="fil1 str0" points="76031,63906 76031,63003 76753,63003 76753,62641 77115,62641 77115,62099 77476,62099 77476,59209 77115,59209 77115,58848 76753,58848 76753,58125 76211,58125 76211,57222 75489,57222 75489,56860 72598,56860 72598,57222 71876,57222 71876,58125 71153,58125 71153,58848 70792,58848 70792,59209 70430,59209 70430,62099 70792,62099 70792,62641 71153,62641 71153,63003 71876,63003 71876,63906 "/>
   <polygon class="fil1 str0" points="59230,66616 61939,66616 61939,67519 59230,67519 "/>
  </g>
  <g id="_3">
   <polygon class="fil2 str0" points="96084,47647 96084,49995 99155,49995 99155,44756 96084,44756 96084,45479 94277,45479 93916,44756 93916,44214 94277,44214 94277,43672 86148,21451 85786,21632 85244,20729 86870,19464 87232,20006 89580,17658 86328,13683 84160,15670 85425,17658 81089,20187 85786,33013 84522,33736 83799,32652 74947,36446 76753,41143 85786,37349 85606,36627 86870,36085 91567,48731 93735,47647 "/>
   <polygon class="fil2 str0" points="91567,35723 91929,35543 89761,29762 89399,29942 "/>
   <polygon class="fil2 str0" points="83799,28136 83257,28497 84160,30484 84702,30304 "/>
   <polygon class="fil2 str0" points="83799,32110 84522,31930 84702,32291 85244,32110 85606,33013 84702,33555 "/>
   <polygon class="fil2 str0" points="81089,20367 80547,20548 80999,21813 81451,22174 81992,23800 82173,23619 "/>
  </g>
  <g id="D">
   <polygon class="fil3 str0" points="52726,53789 52726,57222 53268,57222 53268,59390 52726,59390 52726,67338 53268,67338 53268,69506 52726,69506 52726,71132 51823,72216 50739,72216 50739,72939 43512,72939 43512,72216 42428,72216 42428,68061 48029,68061 48029,67338 47487,67338 47487,53789 48571,53789 48571,52525 49474,52525 49474,51621 50739,51621 50739,52705 51642,52705 51642,53789 "/>
   <polygon class="fil1 str0" points="49474,51621 50739,51621 "/>
  </g>
  <g id="_2">
   <polygon class="fil4 str0" points="42248,72216 41706,72216 41706,73120 20930,73120 20930,62822 22556,62822 22556,67158 38815,67158 38815,65893 39899,65893 39899,64448 41706,64448 41706,68061 42248,68061 "/>
   <polygon class="fil1 str0" points="41706,68422 42067,68422 42067,71855 41706,71855 "/>
   <polygon class="fil1 str0" points="39177,66435 39718,66435 39718,66977 39177,66977 "/>
   <polygon class="fil1 str0" points="20930,64805 22556,64805 22556,64647 20930,64647 "/>
   <polygon class="fil1 str0" points="21291,64267 22195,64267 22195,63183 21291,63183 "/>
  </g>
  <g id="_1">
   <polygon class="fil5 str0" points="20749,72578 19846,72578 19846,72939 12620,72939 12620,73300 8465,73300 8465,72216 5935,72216 5935,71494 5032,72036 3226,68964 4129,68422 3948,68061 5393,65893 4671,64809 6839,61377 7561,61919 11355,55776 10813,55234 12258,53066 11807,52705 15149,47285 15510,47466 16956,45479 17136,45660 20930,39336 20027,38795 22014,35904 23008,35543 23279,35543 24363,36265 24363,37711 31047,42046 32311,40059 34660,41504 32311,45479 33215,46021 32854,46563 32311,47285 31589,46743 29060,51079 31408,52705 31950,51983 36105,54873 35563,55596 34841,55054 33757,57041 30144,54873 30686,54150 30144,53789 30686,53247 28698,51983 22375,62641 20749,62641 20749,64809 18220,63183 19485,61196 14065,57402 13162,57402 9187,64448 10091,65532 11355,67880 11355,68964 14426,68964 14426,65532 19123,65532 19123,69326 20749,69326 "/>
   <polygon class="fil1 str0" points="20207,72216 20569,72216 20569,69868 20207,69868 "/>
   <polygon class="fil1 str0" points="19849,69326 19849,72578 "/>
   <polygon class="fil1 str0" points="20930,58667 24363,53428 20027,50537 19123,51802 19123,52344 19485,52886 19485,53608 18762,54331 17859,54331 16775,55776 "/>
   <polygon class="fil1 str0" points="19339,57560 20569,56138 21883,57212 20930,58667 "/>
   <polygon class="fil1 str0" points="25446,51260 29421,44756 24001,40962 22737,40962 19485,46382 19846,47466 "/>
  </g>
  <g id="C">
   <polygon class="fil6 str0" points="39357,53789 39718,53066 40441,53428 42157,50628 37009,47105 39357,43311 37551,42227 35563,45660 34750,44847 33395,46924 33034,46563 32492,47285 33034,47827 32492,48731 34660,50357 34479,50718 "/>
   <polygon class="fil1 str0" points="40441,53428 42248,50718 "/>
  </g>
  <g id="K">
   <polygon class="fil7 str0" points="40080,48911 42067,45840 41344,45298 42248,44034 41525,43492 43512,40420 39538,37711 37009,41775 39538,43311 37189,47105 "/>
   <polygon class="fil1 str0" points="37009,41775 39538,37711 "/>
  </g>
  <g id="_7">
   <polygon class="fil8 str0" points="61217,43672 63565,42408 61759,39156 64830,37349 63565,35001 60675,36627 59049,33555 56520,34820 58146,37891 55255,39698 56520,41866 59410,40420 "/>
   <line class="fil1 str0" x1="61217" y1="43672" x2="59410" y2= "40420" />
  </g>
  <g id="M">
   <polygon class="fil9 str0" points="43512,37530 45319,36446 45680,36988 47848,36085 46041,32471 42428,35001 "/>
   <line class="fil1 str0" x1="42428" y1="35001" x2="42428" y2= "35181" />
  </g>
  <g id="E">
   <polygon class="fil10 str0" points="46403,32833 47487,31749 48751,32833 49835,31568 49474,31207 52726,26690 52545,26510 53268,25607 52184,24703 53087,23800 52365,23439 46041,32291 "/>
   <line class="fil1 str0" x1="46041" y1="32291" x2="46041" y2= "32471" />
  </g>
  <g id="_8">
   <polygon class="fil11 str0" points="52906,26329 53449,27052 54352,25787 55978,27232 61397,20006 57242,16393 55255,18922 57062,20548 55074,23077 53449,21632 52365,23258 53268,23800 52365,24703 53449,25607 "/>
   <polygon class="fil1 str0" points="59591,22174 59591,21993 57604,20187 57242,20548 "/>
  </g>
  <g id="O">
   <polygon class="fil12 str0" points="62843,25607 65914,21090 63746,18922 60494,23439 "/>
   <line class="fil1 str0" x1="62662" y1="25426" x2="62870" y2= "25567" />
  </g>
  <g id="T">
   <polygon class="fil13 str0" points="70611,20367 72237,18200 69888,16393 70250,16032 70611,16393 71514,15309 69979,13864 68985,14948 69708,15490 69346,15851 68082,14586 66456,16754 "/>
   <line class="fil1 str0" x1="70430" y1="20187" x2="70611" y2= "20367" />
  </g>
  <g id="P">
   <polygon class="fil14 str0" points="72598,13141 74405,11335 72418,8986 72056,9347 70250,7360 68624,8805 70430,10792 70069,11154 70701,11696 70972,11515 "/>
   <line class="fil1 str0" x1="72415" y1="12958" x2="72598" y2= "13141" />
  </g>
  <g id="_4">
   <polygon class="fil15 str0" points="78921,13141 80186,14406 80547,14044 81270,15128 82715,13864 82896,14225 84160,13141 83799,12780 85064,11696 84160,10792 84341,10431 83438,9167 82534,10070 80005,7360 80908,6457 79825,5373 79644,5734 78741,4831 77837,5644 77476,5373 76392,6276 76753,6637 75308,7902 76211,8986 75669,9347 76934,10792 77657,10070 79644,12418 "/>
   <line class="fil1 str0" x1="79099" y1="12964" x2="79283" y2= "12780" />
  </g>
  <polygon id="house1" class="fil16 str0" points="67179,22174 68985,19645 66637,17477 65011,19825 "/>
  <polygon id="house2" class="fil17 str0" points="66275,14767 69346,11876 68262,10792 68624,10431 67720,9528 67540,9709 66637,8805 63746,11515 64649,12599 64288,12960 65191,13864 65372,13683 "/>
  <g id="house3">
   <polygon class="fil18 str0" points="71514,8444 76573,3747 77837,4921 78741,4108 77566,2663 77295,2844 76392,1760 70430,7360 "/>
   <line class="fil1 str0" x1="76573" y1="3747" x2="77295" y2= "2844" />
  </g>
 </g>
</svg>
