<?xml version="1.0"?>
<!DOCTYPE svg PUBLIC "-//W3C//DTD SVG 1.1//EN" "http://www.w3.org/Graphics/SVG/1.1/DTD/svg11.dtd">
<svg version="1.1" id="Capa_1" xmlns="http://www.w3.org/2000/svg" xmlns:xlink="http://www.w3.org/1999/xlink" x="0px" y="0px"
	 width="491.737px" height="491.737px" viewBox="0 0 491.737 491.737" style="enable-background:new 0 0 491.737 491.737;"
	 xml:space="preserve">
<g>
	<g fill="#666666">
		<path d="M149.052,137.472c37.9,0,68.736-30.835,68.736-68.736C217.788,30.835,186.952,0,149.052,0
			c-37.901,0-68.736,30.835-68.736,68.736C80.315,106.639,111.151,137.472,149.052,137.472z"/>
		<polygon points="194.97,155.159 103.134,155.159 54.481,385.057 54.381,385.659 107.706,385.659 107.706,491.737 190.396,491.737 
			190.396,385.659 243.722,385.659 195.041,155.591 		"/>
		<path d="M363.358,137.472c37.9,0,68.734-30.835,68.734-68.736C432.092,30.835,401.258,0,363.358,0
			c-37.902,0-68.738,30.835-68.738,68.736C294.62,106.637,325.456,137.472,363.358,137.472z"/>
		<polygon points="437.356,154.696 289.528,154.647 289.459,384.756 289.36,385.355 322.012,385.355 322.012,491.435 
			404.702,491.435 404.702,385.355 437.354,385.355 		"/>
	</g>
</g>
</svg>
