<?xml version="1.0" encoding="UTF-8"?>
<!DOCTYPE svg PUBLIC "-//W3C//DTD SVG 1.1//EN" "http://www.w3.org/Graphics/SVG/1.1/DTD/svg11.dtd">
<?xml-stylesheet href="../css/floor.css" type="text/css"?>
<svg xmlns:cc="http://web.resource.org/cc/"
     xmlns:dc="http://purl.org/dc/elements/1.1/"
     xmlns:rdf="http://www.w3.org/1999/02/22-rdf-syntax-ns#"
     xmlns:svg="http://www.w3.org/2000/svg"
     xmlns="http://www.w3.org/2000/svg" 
	width="100%" height="100%" 
	version="1.1" 
	id="floor"
	style="shape-rendering:geometricPrecision; text-rendering:geometricPrecision; image-rendering:optimizeQuality; fill-rule:evenodd; clip-rule:evenodd"
	viewBox="0 0 21000 9620"
	xmlns:xlink="http://www.w3.org/1999/xlink">

  <script type="text/ecmascript">
   <![CDATA[ 
   document.getElementById("floor").addEventListener("click", sendClickToParentDocument, false);
		
		function sendClickToParentDocument(evt)
		{
			var target = evt.target;
			if(target.correspondingUseElement)
				target = target.correspondingUseElement;
			window.parent.svgElementClick(target);
		}
]]>
  </script>
  
  <rect id="stairThird" x="3195" y="2141" width="783" height="2039"/>
  <rect id="2224" x="2002" y="2154" width="620" height="2026"/>
  <rect id="2225" x="2622" y="2897" width="573" height="1283"/>
  <rect id="2226" x="3976" y="2141" width="1443" height="2039"/>
  <rect id="2227" x="5420" y="2141" width="1581" height="2039"/>
  <rect id="2228" x="7002" y="2141" width="2979" height="2039"/>
  <rect id="stairFirst" x="9979" y="2141" width="2085" height="2039"/>
  <rect id="2201_1" x="12065" y="2141" width="779" height="2039"/>
  <rect id="2201_2" x="12844" y="2141" width="733" height="2039"/>
  <rect id="2202" x="13576" y="2141" width="1558" height="2039"/>
  <rect id="2203" x="15134" y="2141" width="1558" height="2039"/>
  <rect id="2204_1" x="16692" y="2141" width="894" height="1077"/>
  <rect id="2204" x="16692" y="3218" width="894" height="961"/>
  <rect id="2205" x="17586" y="2141" width="870" height="2039"/>
  <rect id="stairSecond" x="18456" y="2141" width="803" height="2039"/>
  <rect id="2209" x="19259" y="2141" width="599" height="2039"/>
  <rect id="2208" x="19857" y="2141" width="983" height="2039"/>
  <rect id="2207" x="19259" y="1751" width="1581" height="390"/>
  <rect id="2206" x="19259" y="101" width="1581" height="1649"/>
  <rect id="2211_1" x="19855" y="4907" width="986" height="2069"/>
  <rect id="2211" x="19053" y="4907" width="803" height="786"/>
  <rect id="2211_2" x="19053" y="5693" width="803" height="1283"/>
  <rect id="2212" x="17495" y="4907" width="1558" height="2069"/>
  <rect id="2213" x="15868" y="4907" width="1627" height="2069"/>
  <rect id="2214" x="14217" y="4907" width="1649" height="2069"/>
  <rect id="2215" x="12546" y="4907" width="1672" height="2069"/>
  <rect id="2216_1" x="11835" y="5463" width="710" height="1512"/>
  <rect id="2216" x="11835" y="4907" width="710" height="550"/>
  <rect id="2217" x="10644" y="4907" width="1192" height="2069"/>
  <rect id="2218" x="8490" y="4907" width="2154" height="2069"/>
  <rect id="2219" x="7574" y="4907" width="916" height="2063"/>
  <rect id="2220" x="6038" y="4907" width="1536" height="2069"/>
  <rect id="2221" x="5305" y="4907" width="733" height="2069"/>
  <rect id="2221_2" x="4550" y="4907" width="750" height="1358"/>
  <rect id="2221_1" x="4550" y="6264" width="750" height="710"/>
  <rect id="2222" x="2750" y="4907" width="1800" height="2069"/>
  <rect id="2222_1" x="1937" y="5571" width="820" height="1404"/>
  <rect id="2222_2" x="1937" y="4907" width="820" height="660"/>
  <rect id="2223" x="94" y="4907" width="1844" height="1541"/>
  <rect id="2210" x="19857" y="4180" width="983" height="727"/>
  <polygon id="unknown" points="2002,2154 2622,2154 2622,2897 3195,2897 3195,2141 3312,2141 3312,307 2006,307 "/>
  <polygon id="corridor" points="105,3606 2002,3606 2002,4180 19857,4180 19857,4907 94,4907 "/>
  
  <text x="10910" y="3124" >Л1</text>
  <text x="12250" y="3124" >2201</text>
  <text x="12900" y="3124" >2201-1</text>
  <text x="14100" y="3124" >2202</text>
  <text x="15600" y="3124" >2203</text>
  <text x="16900" y="3657" >2204</text>
  <text x="16850" y="2648" >2204-1</text>
  <text x="17800" y="3124" >2205</text>
  <text x="18700" y="3124" >Л2</text>
  <text x="19850" y="911" >2206</text>
  <text x="19850" y="2000" >2207</text>
  <text x="19350" y="3124" >2209</text>
  <text x="20150" y="3124" >2208</text>
  <text x="20100" y="4600" >2210</text>
  <text x="19250" y="5243" >2211</text>
  <text x="20050" y="5878" >2211-1</text>
  <text x="19170" y="6267" >2211-2</text>
  <text x="18100" y="5878" >2212</text>
  <text x="16500" y="5878" >2213</text>
  <text x="14900" y="5878" >2214</text>
  <text x="13200" y="5878" >2215</text>
  <text x="12000" y="5250" >2216</text>
  <text x="11900" y="6153" >2216-1</text>
  <text x="11000" y="5878" >2217</text>
  <text x="9400" y="5878" >2218</text>
  <text x="7800" y="5875" >2219</text>
  <text x="6550" y="5878" >2220</text>
  <text x="5450" y="5878" >2221</text>
  <text x="4650" y="6550" >2221-1</text>
  <text x="4650" y="5526" >2221-2</text>
  <text x="3500" y="5878" >2222</text>
  <text x="2050" y="6207" >2222-1</text>
  <text x="2050" y="5181" >2222-2</text>
  <text x="900" y="5617" >2223</text>
  <text x="2100" y="3131" >2224</text>
  <text x="2700" y="3498" >2225</text>
  <text x="3500" y="3124" >Л3</text>
  <text x="4400" y="3124" >2226</text>
  <text x="6000" y="3124" >2227</text>
  <text x="8200" y="3124" >2228</text>
</svg>
