<?xml version="1.0" encoding="UTF-8"?>
<!DOCTYPE svg PUBLIC "-//W3C//DTD SVG 1.1//EN" "http://www.w3.org/Graphics/SVG/1.1/DTD/svg11.dtd">
<?xml-stylesheet href="../css/maps.css" type="text/css"?>
<svg xmlns:cc="http://web.resource.org/cc/"
     xmlns:dc="http://purl.org/dc/elements/1.1/"
     xmlns:rdf="http://www.w3.org/1999/02/22-rdf-syntax-ns#"
     xmlns:svg="http://www.w3.org/2000/svg"
     xmlns="http://www.w3.org/2000/svg" 
	width="100%" height="100%" 
	version="1.1" 
	id="floor"
	style="shape-rendering:geometricPrecision; text-rendering:geometricPrecision; image-rendering:optimizeQuality; fill-rule:evenodd; clip-rule:evenodd"
	viewBox="0 0 21000 7620"
	xmlns:xlink="http://www.w3.org/1999/xlink">

  <script type="text/ecmascript">
   <![CDATA[
   document.getElementById("floor").addEventListener("mouseover", sendOverToParentDocument, false);
   
   document.getElementById("floor").addEventListener("click", sendClickToParentDocument, false);
   
		function sendOverToParentDocument(evt)
		{
			var target = evt.target;
			if(target.correspondingUseElement)
				target = target.correspondingUseElement;
				
      	window.parent.svgElementMouseOver(target);
		}
		
		function sendClickToParentDocument(evt)
		{
			var target = evt.target;
			if(target.correspondingUseElement)
				target = target.correspondingUseElement;
			window.parent.svgElementClick(target);
		}
]]>
  </script>
  
  <rect id="stairThird" x="3195" y="2141" width="783" height="2039"/>
  <rect id="2224" x="2002" y="2154" width="620" height="2026"/>
  <rect id="2225" x="2622" y="2897" width="573" height="1283"/>
  <rect id="2226" x="3976" y="2141" width="1443" height="2039"/>
  <rect id="2227" x="5420" y="2141" width="1581" height="2039"/>
  <rect id="2228" x="7002" y="2141" width="2979" height="2039"/>
  <rect id="stairFirst" x="9979" y="2141" width="2085" height="2039"/>
  <rect id="2201_1" x="12065" y="2141" width="779" height="2039"/>
  <rect id="2201_2" x="12844" y="2141" width="733" height="2039"/>
  <rect id="2202" x="13576" y="2141" width="1558" height="2039"/>
  <rect id="2203" x="15134" y="2141" width="1558" height="2039"/>
  <rect id="2204_1" x="16692" y="2141" width="894" height="1077"/>
  <rect id="2204" x="16692" y="3218" width="894" height="961"/>
  <rect id="2205" x="17586" y="2141" width="870" height="2039"/>
  <rect id="stairSecond" x="18456" y="2141" width="803" height="2039"/>
  <rect id="2209" x="19259" y="2141" width="599" height="2039"/>
  <rect id="2208" x="19857" y="2141" width="983" height="2039"/>
  <rect id="2207" x="19259" y="1751" width="1581" height="390"/>
  <rect id="2206" x="19259" y="101" width="1581" height="1649"/>
  <rect id="2211_1" x="19855" y="4907" width="986" height="2069"/>
  <rect id="2211" x="19053" y="4907" width="803" height="786"/>
  <rect id="2211_2" x="19053" y="5693" width="803" height="1283"/>
  <rect id="2212" x="17495" y="4907" width="1558" height="2069"/>
  <rect id="2213" x="15868" y="4907" width="1627" height="2069"/>
  <rect id="2214" x="14217" y="4907" width="1649" height="2069"/>
  <rect id="2215" x="12546" y="4907" width="1672" height="2069"/>
  <rect id="2216_1" x="11835" y="5463" width="710" height="1512"/>
  <rect id="2216" x="11835" y="4907" width="710" height="550"/>
  <rect id="2217" x="10644" y="4907" width="1192" height="2069"/>
  <rect id="2218" x="8490" y="4907" width="2154" height="2069"/>
  <rect id="2219" x="7574" y="4907" width="916" height="2063"/>
  <rect id="2220" x="6038" y="4907" width="1536" height="2069"/>
  <rect id="2221" x="5305" y="4907" width="733" height="2069"/>
  <rect id="2221_2" x="4687" y="4907" width="618" height="1358"/>
  <rect id="2221_1" x="4687" y="6264" width="618" height="710"/>
  <rect id="2222" x="2602" y="4907" width="2085" height="2069"/>
  <rect id="2222_1" x="1937" y="5571" width="664" height="1404"/>
  <rect id="2223" x="94" y="4907" width="1844" height="1541"/>
  <rect id="2222_2" x="1937" y="4907" width="664" height="660"/>
  <rect id="2210" x="19857" y="4180" width="983" height="727"/>
  <polygon id="unknown" points="2002,2154 2622,2154 2622,2897 3195,2897 3195,2141 3312,2141 3312,307 2006,307 "/>
  <polygon id="corridor" points="105,3606 2002,3606 2002,4180 19857,4180 19857,4907 94,4907 "/>
  
  <text x="10910" y="3124" >s1</text>
  <text x="12300" y="3124" >01</text>
  <text x="13000" y="3124" >01-1</text>
  <text x="14000" y="3124" >02</text>
  <text x="15600" y="3124" >03</text>
  <text x="16900" y="3657" >04</text>
  <text x="16900" y="2648" >04-1</text>
  <text x="17800" y="3124" >05</text>
  <text x="18650" y="3124" >s2</text>
  <text x="19850" y="911" >6</text>
  <text x="19850" y="2000" >7</text>
  <text x="19400" y="3124" >9</text>
  <text x="20200" y="3124" >8</text>
  <text x="20100" y="4600" >10</text>
  <text x="19300" y="5243" >11</text>
  <text x="20100" y="5878" >11-1</text>
  <text x="19300" y="6267" >11-2</text>
  <text x="17900" y="5878" >12</text>
  <text x="16300" y="5878" >13</text>
  <text x="14700" y="5878" >14</text>
  <text x="13000" y="5878" >15</text>
  <text x="12000" y="5250" >16</text>
  <text x="12000" y="6153" >16-1</text>
  <text x="11000" y="5878" >17</text>
  <text x="9300" y="5878" >18</text>
  <text x="7750" y="5875" >19</text>
  <text x="6550" y="5878" >20</text>
  <text x="5450" y="5878" >21</text>
  <text x="4750" y="6550" >21-1</text>
  <text x="4750" y="5526" >21-2</text>
  <text x="3500" y="5878" >22</text>
  <text x="2050" y="6207" >22-1</text>
  <text x="2050" y="5181" >22-2</text>
  <text x="900" y="5617" >23</text>
  <text x="2200" y="3131" >24</text>
  <text x="2700" y="3498" >25</text>
  <text x="3400" y="3124" >s3</text>
  <text x="4400" y="3124" >26</text>
  <text x="6000" y="3124" >27</text>
  <text x="8200" y="3124" >28</text>

</svg>
