<?xml version="1.0" encoding="UTF-8"?>
<!DOCTYPE svg PUBLIC "-//W3C//DTD SVG 1.0//EN"
"http://www.w3.org/TR/2001/REC-SVG-20010904/DTD/svg10.dtd">

<?xml-stylesheet href="../css/map.css" type="text/css"?>

<svg xmlns:cc="http://web.resource.org/cc/"
     xmlns:dc="http://purl.org/dc/elements/1.1/"
     xmlns:rdf="http://www.w3.org/1999/02/22-rdf-syntax-ns#"
     xmlns:svg="http://www.w3.org/2000/svg"
     xmlns="http://www.w3.org/2000/svg"
     id="lmap"
     version="1.1" 
     width="100%" height="100%" 
     viewBox="0 0 25823 11853">
	 
<metadata>
	<rdf:rdf>
		<dc:format>
			image/svg+xml
		</dc:format>
		<dc:title>
			Карта Санкт-Петербургского государственного Эектротехнического университета "ЛЭТИ"
		</dc:title>
		<dc:creator>
			Egor Shokhin
		</dc:creator>
	</rdf:rdf>
</metadata>

<g class="corp">
  <polygon id="5" points="17129,7120 17217,7120 17217,7061 17335,7061 17335,7592 18131,7592 18131,7120 18366,7120 18366,7592 19131,7592 19131,7415 19250,7415 19368,7709 19780,7533 20104,7533 20104,7857 20016,7857 20016,8623 19368,8623 19368,8711 19250,8711 19250,8593 19191,8593 19191,8711 18366,8711 18366,8859 18248,8859 18248,8711 18189,8711 18189,8859 17747,8859 17747,9006 17806,9006 17806,9329 18366,9329 18366,9978 17747,9978 17747,10272 20074,10272 20074,10419 20221,10419 20221,10567 20369,10567 20369,10744 20074,10744 20074,10832 20163,10832 20163,10891 20280,10891 20280,11038 20074,11038 20074,11156 16186,11156 16186,11215 16274,11215 16274,11362 16157,11362 16157,11274 16068,11274 16068,11362 15951,11362 15951,11215 16039,11215 16039,11156 14389,11156 14389,11038 14184,11038 14184,10891 14272,10891 14272,10832 14419,10832 14419,10744 14125,10744 14125,10596 14242,10596 14242,10449 14360,10449 14360,10302 15391,10302 15391,9978 14743,9978 14743,9389 15303,9389 15303,9006 15538,9006 15538,8711 15450,8711 15450,8829 15303,8829 15303,8711 14478,8711 14478,8593 14389,8593 14389,8770 14242,8770 14242,8623 13476,8623 13476,8711 13329,8711 13329,8505 13094,8505 13094,8476 12916,8476 12916,8298 12769,8298 12769,7916 12975,7916 12975,7621 13388,7621 13388,7415 13536,7415 13536,7474 14419,7474 14419,7386 14537,7386 14537,7592 15303,7592 15303,7356 15538,7356 15538,6650 15804,6650 15804,6709 16304,6709 16304,7268 16452,7268 16452,7621 17129,7621 "/>
  <polygon id="3" points="20133,7503 20133,7887 20634,7887 20634,7032 20133,7032 20133,7150 19839,7150 19780,7032 19780,6944 19839,6944 19839,6856 18513,3232 18454,3262 18366,3114 18631,2909 18690,2997 19073,2614 18542,1966 18189,2290 18395,2614 17689,3026 18454,5118 18248,5235 18131,5059 16687,5677 16982,6443 18454,5824 18425,5707 18631,5619 19397,7680 19750,7503 "/>
  <polygon id="D" points="13064,8505 13064,9065 13153,9065 13153,9418 13064,9418 13064,10714 13153,10714 13153,11067 13064,11067 13064,11333 12916,11509 12740,11509 12740,11627 11562,11627 11562,11509 11385,11509 11385,10832 12298,10832 12298,10714 12210,10714 12210,8505 12386,8505 12386,8298 12534,8298 12534,8151 12740,8151 12740,8329 12887,8329 12887,8505 "/>
  <polygon id="2" points="11356,11509 11267,11509 11267,11656 7879,11656 7879,9978 8145,9978 8145,10685 10796,10685 10796,10478 10973,10478 10973,10243 11267,10243 11267,10832 11356,10832 "/>
  <polygon id="1" points="7850,11568 7703,11568 7703,11627 6525,11627 6525,11687 5847,11687 5847,11509 5435,11509 5435,11392 5288,11480 4993,10979 5141,10891 5111,10832 5347,10478 5229,10302 5582,9742 5700,9830 6319,8829 6231,8740 6466,8387 6392,8329 6937,7445 6996,7474 7232,7150 7261,7180 7879,6149 7732,6061 8057,5589 8218,5530 8263,5530 8439,5648 8439,5883 9529,6591 9736,6266 10118,6502 9736,7150 9883,7239 9824,7327 9736,7445 9618,7356 9205,8063 9588,8329 9677,8210 10354,8682 10266,8799 10148,8711 9971,9035 9382,8682 9470,8564 9382,8505 9470,8417 9147,8210 8116,9948 7850,9948 7850,10302 7438,10037 7644,9713 6761,9094 6613,9094 5965,10243 6112,10419 6319,10803 6319,10979 6820,10979 6820,10419 7585,10419 7585,11038 7850,11038 "/>
  <polygon id="C" points="10884,8505 10943,8387 11061,8446 11341,7989 10501,7415 10884,6797 10589,6619 10266,7180 10133,7047 9912,7386 9853,7327 9765,7445 9853,7533 9765,7680 10118,7945 10089,8004 "/>
  <polygon id="K" points="11002,7709 11326,7208 11208,7120 11356,6914 11237,6826 11562,6325 10914,5883 10501,6546 10914,6797 10531,7415 "/>
  <polygon id="7" points="14448,6856 14832,6650 14537,6119 15037,5824 14832,5441 14360,5707 14095,5206 13683,5412 13947,5913 13476,6208 13683,6561 14153,6325 "/>
  <polygon id="M" points="11562,5854 11856,5677 11916,5766 12268,5619 11974,5030 11385,5441 "/>
  <polygon id="E" points="12033,5088 12210,4911 12416,5088 12593,4882 12534,4823 13064,4087 13034,4057 13153,3910 12975,3762 13123,3615 13005,3556 11974,5000 "/>
  <polygon id="8" points="13094,4028 13182,4145 13329,3940 13595,4175 14478,2997 13800,2408 13476,2820 13771,3085 13447,3498 13182,3262 13005,3527 13153,3615 13005,3762 13182,3910 "/>
  <polygon id="O" points="14714,3910 15214,3173 14861,2820 14331,3556 "/>
  <polygon id="T" points="15980,3056 16245,2703 15863,2408 15921,2349 15980,2408 16127,2231 15877,1995 15715,2172 15832,2261 15773,2319 15568,2114 15303,2466 "/>
  <polygon id="P" points="16304,1877 16599,1583 16274,1200 16216,1259 15921,935 15656,1171 15951,1494 15892,1554 15995,1642 16039,1613 "/>
  <polygon id="4" points="17335,1877 17541,2084 17600,2024 17718,2202 17953,1995 17983,2054 18189,1877 18131,1819 18337,1642 18189,1494 18219,1435 18071,1230 17924,1377 17512,935 17659,787 17482,611 17452,670 17305,523 17158,656 17100,611 16923,758 16982,817 16746,1024 16893,1200 16805,1259 17011,1494 17129,1377 17452,1760 "/>
  <polygon id="house1" points="15421,3351 15715,2938 15332,2584 15067,2967 "/>
  <polygon id="house2" points="15274,2143 15773,1672 15597,1494 15656,1435 15509,1288 15479,1318 15332,1171 14861,1613 15008,1789 14949,1848 15096,1995 15126,1966 "/>
  <polygon id="house3" points="16127,1112 16952,345 17158,537 17305,405 17114,169 17070,198 16923,22 15951,935 "/>
</g> 
<g id = "textId"> 
  <text x="16429" y="9670">5</text>
  <text x="18550" y="5284">3</text>
  <text x="14160" y="6235">7</text>
  <text x="12467" y="10141">D</text>
  <text x="9355" y="11368">2</text>
  <text x="7846" y="8255">1</text>
  <text x="10274" y="7972">C</text>
  <text x="10887" y="6699">K</text>
  <text x="11618" y="5673">M</text>
  <text x="12440" y="4658">E</text>
  <text x="13665" y="3580">8</text>
  <text x="14525" y="3597">O</text>
  <text x="15609" y="2679">T</text>
  <text x="16027" y="1577">P</text>
  <text x="17324" y="1547">4</text>
</g>
</svg>