<?xml version="1.0" encoding="UTF-8"?>
<!DOCTYPE svg PUBLIC "-//W3C//DTD SVG 1.0//EN"
"http://www.w3.org/TR/2001/REC-SVG-20010904/DTD/svg10.dtd">

<?xml-stylesheet href="../css/maps.css" type="text/css"?>
<?xml-stylesheet href="../css/corps.css" type="text/css"?>

<svg xmlns:cc="http://web.resource.org/cc/"
     xmlns:dc="http://purl.org/dc/elements/1.1/"
     xmlns:rdf="http://www.w3.org/1999/02/22-rdf-syntax-ns#"
     xmlns:svg="http://www.w3.org/2000/svg"
     xmlns="http://www.w3.org/2000/svg"
     id="lmap"
     version="1.1" 
     width="100%" height="100%" 
     viewBox="0 0 17850 13292">
	 
<metadata>
	<rdf:rdf>
		<dc:format>
			image/svg+xml
		</dc:format>
		<dc:title>
			Карта Санкт-Петербургского государственного Эектротехнического университета "ЛЭТИ"
		</dc:title>
		<dc:creator>
			Egor Shokhin
		</dc:creator>
	</rdf:rdf>
</metadata>

<script type="text/ecmascript">
<![CDATA[
   document.getElementById("lmap").addEventListener("mouseover", sendOverToParentDocument, false);
   
   document.getElementById("lmap").addEventListener("click", sendClickToParentDocument, false);
   
		function sendOverToParentDocument(evt)
		{
			// SVGElementInstance objects aren't normal DOM nodes, so fetch the corresponding 'use' element instead
			var target = evt.target;
			if(target.correspondingUseElement)
				target = target.correspondingUseElement;
				
      	window.parent.svgElementMouseOver(target);
		}
		
		function sendClickToParentDocument(evt)
		{
			var target = evt.target;
			if(target.correspondingUseElement)
				target = target.correspondingUseElement;
			window.parent.svgElementClick(target);
		}
]]></script>

  <polygon id="5" class="fiveCorp" points="13684,8005 13783,8005 13783,7939 13915,7939 13915,8534 14808,8534 14808,8005 15072,8005 15072,8534 15931,8534 15931,8336 16064,8336 16196,8666 16659,8468 17022,8468 17022,8832 16923,8832 16923,9691 16196,9691 16196,9790 16064,9790 16064,9658 15998,9658 15998,9790 15072,9790 15072,9956 14940,9956 14940,9790 14874,9790 14874,9956 14378,9956 14378,10121 14444,10121 14444,10484 15072,10484 15072,11212 14378,11212 14378,11542 16989,11542 16989,11707 17154,11707 17154,11873 17320,11873 17320,12071 16989,12071 16989,12170 17088,12170 17088,12236 17220,12236 17220,12401 16989,12401 16989,12534 12626,12534 12626,12600 12725,12600 12725,12765 12593,12765 12593,12666 12494,12666 12494,12765 12362,12765 12362,12600 12461,12600 12461,12534 10610,12534 10610,12401 10379,12401 10379,12236 10478,12236 10478,12170 10643,12170 10643,12071 10313,12071 10313,11905 10445,11905 10445,11740 10577,11740 10577,11575 11734,11575 11734,11212 11007,11212 11007,10551 11635,10551 11635,10121 11899,10121 11899,9790 11800,9790 11800,9922 11635,9922 11635,9790 10709,9790 10709,9658 10610,9658 10610,9856 10445,9856 10445,9691 9585,9691 9585,9790 9420,9790 9420,9559 9156,9559 9156,9526 8957,9526 8957,9327 8792,9327 8792,8898 9023,8898 9023,8567 9486,8567 9486,8336 9652,8336 9652,8402 10643,8402 10643,8303 10775,8303 10775,8534 11635,8534 11635,8270 11899,8270 11899,7477 12197,7477 12197,7543 12758,7543 12758,8171 12924,8171 12924,8567 13684,8567 "/>
  <polygon id="3" class="threeCorp" points="17055,8435 17055,8865 17617,8865 17617,7906 17055,7906 17055,8038 16725,8038 16659,7906 16659,7807 16725,7807 16725,7708 15237,3642 15171,3676 15072,3510 15369,3279 15436,3378 15865,2949 15270,2221 14874,2585 15105,2949 14312,3411 15171,5758 14940,5890 14808,5692 13188,6386 13519,7245 15171,6551 15138,6419 15369,6320 16229,8633 16625,8435 "/>
  <polygon id="D" class="DCorp" points="9123,9559 9123,10187 9222,10187 9222,10583 9123,10583 9123,12038 9222,12038 9222,12434 9123,12434 9123,12732 8957,12930 8759,12930 8759,13062 7437,13062 7437,12930 7239,12930 7239,12170 8263,12170 8263,12038 8164,12038 8164,9559 8362,9559 8362,9327 8528,9327 8528,9162 8759,9162 8759,9361 8924,9361 8924,9559 "/>
  <polygon id="2" class="twoCorp" points="7206,12930 7106,12930 7106,13095 3305,13095 3305,11212 3603,11212 3603,12005 6578,12005 6578,11773 6776,11773 6776,11509 7106,11509 7106,12170 7206,12170 "/>
  <polygon id="1" class="firstCorp" points="3272,12996 3107,12996 3107,13062 1785,13062 1785,13129 1025,13129 1025,12930 562,12930 562,12798 397,12897 66,12335 232,12236 199,12170 463,11773 331,11575 727,10947 860,11046 1554,9922 1455,9823 1719,9427 1636,9361 2248,8369 2314,8402 2578,8038 2611,8072 3305,6915 3140,6816 3504,6287 3685,6221 3735,6221 3933,6353 3933,6617 5156,7411 5388,7047 5817,7311 5388,8038 5553,8138 5487,8237 5388,8369 5256,8270 4793,9063 5222,9361 5322,9228 6082,9757 5983,9889 5851,9790 5652,10154 4991,9757 5090,9625 4991,9559 5090,9460 4727,9228 3570,11178 3272,11178 3272,11575 2810,11278 3041,10914 2050,10220 1884,10220 1157,11509 1322,11707 1554,12137 1554,12335 2116,12335 2116,11707 2975,11707 2975,12401 3272,12401 "/>
  <polygon id="C" class="CCorp" points="6677,9559 6743,9427 6875,9493 7189,8980 6247,8336 6677,7642 6346,7443 5983,8072 5834,7923 5586,8303 5520,8237 5421,8369 5520,8468 5421,8633 5817,8931 5784,8997 "/>
  <polygon id="K" class="KCorp" points="6809,8666 7173,8104 7040,8005 7206,7774 7073,7675 7437,7113 6710,6617 6247,7361 6710,7642 6280,8336 "/>
  <polygon id="7" class="sevenCorp" points="10676,7708 11106,7477 10775,6882 11337,6551 11106,6121 10577,6419 10279,5857 9817,6088 10114,6650 9585,6981 9817,7377 10345,7113 "/>
  <polygon id="M" class="MCorp" points="7437,6584 7767,6386 7834,6485 8230,6320 7900,5659 7239,6121 "/>
  <polygon id="E" class="ECorp" points="7966,5725 8164,5526 8396,5725 8594,5493 8528,5427 9123,4601 9089,4568 9222,4403 9023,4237 9189,4072 9057,4006 7900,5626 "/>
  <polygon id="8" class="eightCorp" points="9156,4535 9255,4667 9420,4436 9718,4700 10709,3378 9949,2717 9585,3180 9916,3477 9552,3940 9255,3676 9057,3973 9222,4072 9057,4237 9255,4403 "/>
  <polygon id="O" class="OCorp" points="10974,4403 11535,3576 11139,3180 10544,4006 "/>
  <polygon id="T" class="TCorp" points="12395,3444 12692,3048 12263,2717 12329,2651 12395,2717 12560,2519 12279,2254 12097,2453 12229,2552 12163,2618 11932,2387 11635,2783 "/>
  <polygon id="P" class="PCorp" points="12758,2122 13089,1792 12725,1362 12659,1428 12329,1064 12031,1329 12362,1692 12296,1759 12411,1858 12461,1825 "/>
  <polygon id="4" class="fourCorp" points="13915,2122 14146,2354 14213,2287 14345,2486 14609,2254 14642,2320 14874,2122 14808,2056 15039,1858 14874,1692 14907,1626 14741,1395 14576,1560 14114,1064 14279,899 14080,701 14047,767 13882,602 13717,751 13651,701 13453,866 13519,932 13254,1164 13419,1362 13320,1428 13552,1692 13684,1560 14047,1990 "/>
  <polygon id="house1" class="unknownCorp" points="11767,3775 12097,3312 11668,2915 11370,3345 "/>
  <polygon id="house2" class="unknownCorp" points="11602,2420 12163,1891 11965,1692 12031,1626 11866,1461 11833,1494 11668,1329 11139,1825 11304,2023 11238,2089 11403,2254 11436,2221 "/>
  <polygon id="house3" class="unknownCorp" points="12560,1263 13485,403 13717,618 13882,470 13667,205 13618,238 13453,40 12362,1064 "/>
  
  <text x="12898" y="10866">5</text>
  <text x="15279" y="5945">3</text>
  <text x="10353" y="7012">7</text>
  <text x="8453" y="11395">D</text>
  <text x="4961" y="12771">2</text>
  <text x="3267" y="9278">1</text>
  <text x="5992" y="8961">C</text>
  <text x="6680" y="7532">K</text>
  <text x="7500" y="6381">M</text>
  <text x="8422" y="5242">E</text>
  <text x="9797" y="4033">8</text>
  <text x="10762" y="4052">O</text>
  <text x="11978" y="3021">T</text>
  <text x="12447" y="1785">P</text>
  <text x="13903" y="1751">4</text>
</svg>