<?xml version="1.0" encoding="UTF-8"?>
<!DOCTYPE svg PUBLIC "-//W3C//DTD SVG 1.0//EN"
"http://www.w3.org/TR/2001/REC-SVG-20010904/DTD/svg10.dtd">
<?xml-stylesheet href="../css/maps.css" type="text/css"?>
<svg xmlns:cc="http://web.resource.org/cc/"
     xmlns:dc="http://purl.org/dc/elements/1.1/"
     xmlns:rdf="http://www.w3.org/1999/02/22-rdf-syntax-ns#"
     xmlns:svg="http://www.w3.org/2000/svg"
     xmlns="http://www.w3.org/2000/svg"
     id="lmap"
     version="1.1" 
     width="100%" height="100%" 
     viewBox="0 0 90000 60000"> 
	 
<metadata>
	<rdf:rdf>
		<dc:format>
			image/svg+xml
		</dc:format>
		<dc:title>
			Карта Санкт-Петербургского государственного Эектротехнического университета "ЛЭТИ"
		</dc:title>
		<dc:creator>
			Egor Shokhin
		</dc:creator>
	</rdf:rdf>
</metadata>

<script type="text/ecmascript">
<![CDATA[
   document.getElementById("lmap").addEventListener("mouseover", sendOverToParentDocument, false);
   
   document.getElementById("lmap").addEventListener("click", sendClickToParentDocument, false);
   
		function sendOverToParentDocument(evt)
		{
			// SVGElementInstance objects aren't normal DOM nodes, so fetch the corresponding 'use' element instead
			var target = evt.target;
			if(target.correspondingUseElement)
				target = target.correspondingUseElement;
				
      	window.parent.svgElementMouseOver(target);
		}
		
		function sendClickToParentDocument(evt)
		{
			var target = evt.target;
			if(target.correspondingUseElement)
				target = target.correspondingUseElement;
			window.parent.svgElementClick(target);
		}
]]></script>

  <polygon id="5" class="fiveCorp" points="65708,37054 66133,37054 66133,36771 66700,36771 66700,39321 70524,39321 70524,37054 71658,37054 71658,39321 75341,39321 75341,38471 75907,38471 76474,39887 78457,39038 80015,39038 80015,40596 79590,40596 79590,44279 76474,44279 76474,44704 75907,44704 75907,44137 75624,44137 75624,44704 71658,44704 71658,45412 71091,45412 71091,44704 70808,44704 70808,45412 68683,45412 68683,46120 68966,46120 68966,47678 71658,47678 71658,50795 68683,50795 68683,52211 79873,52211 79873,52919 80582,52919 80582,53628 81290,53628 81290,54478 79873,54478 79873,54903 80298,54903 80298,55186 80865,55186 80865,55894 79873,55894 79873,56461 61175,56461 61175,56744 61600,56744 61600,57452 61034,57452 61034,57027 60609,57027 60609,57452 60042,57452 60042,56744 60467,56744 60467,56461 52534,56461 52534,55894 51543,55894 51543,55186 51968,55186 51968,54903 52676,54903 52676,54478 51260,54478 51260,53769 51826,53769 51826,53061 52393,53061 52393,52353 57351,52353 57351,50795 54234,50795 54234,47962 56926,47962 56926,46120 58059,46120 58059,44704 57634,44704 57634,45270 56926,45270 56926,44704 52959,44704 52959,44137 52534,44137 52534,44987 51826,44987 51826,44279 48143,44279 48143,44704 47435,44704 47435,43712 46302,43712 46302,43570 45452,43570 45452,42720 44744,42720 44744,40879 45735,40879 45735,39462 47718,39462 47718,38471 48427,38471 48427,38754 52676,38754 52676,38329 53243,38329 53243,39321 56926,39321 56926,38188 58059,38188 58059,34788 59334,34788 59334,35071 61742,35071 61742,37763 62450,37763 62450,39462 65708,39462 "/>

  <polygon id="3" class="threeCorp" points="80157,38896 80157,40737 82565,40737 82565,36629 80157,36629 80157,37196 78740,37196 78457,36629 78457,36205 78740,36205 78740,35780 72366,18356 72083,18498 71658,17790 72932,16798 73216,17223 75057,15382 72507,12265 70808,13823 71799,15382 68400,17365 72083,27422 71091,27989 70524,27139 63583,30113 65000,33796 72083,30822 71941,30255 72932,29830 76615,39746 78315,38896 "/>
  
  <polygon id="D" class="DCorp" points="46160,43712 46160,46403 46585,46403 46585,48103 46160,48103 46160,54336 46585,54336 46585,56036 46160,56036 46160,57311 45452,58161 44602,58161 44602,58727 38936,58727 38936,58161 38086,58161 38086,54903 42477,54903 42477,54336 42052,54336 42052,43712 42902,43712 42902,42720 43610,42720 43610,42012 44602,42012 44602,42862 45310,42862 45310,43712 "/>

  <polygon id="2" class="twoCorp" points="37944,58161 37519,58161 37519,58869 21229,58869 21229,50795 22504,50795 22504,54194 35253,54194 35253,53203 36103,53203 36103,52070 37519,52070 37519,54903 37944,54903 "/>
  
  <polygon id="1" class="firstCorp" points="21088,58444 20379,58444 20379,58727 14713,58727 14713,59011 11455,59011 11455,58161 9472,58161 9472,57594 8764,58019 7347,55611 8056,55186 7914,54903 9047,53203 8481,52353 10180,49661 10747,50086 13722,45270 13297,44845 14430,43145 14076,42862 16696,38613 16980,38754 18113,37196 18255,37338 21229,32380 20521,31955 22079,29688 22858,29405 23071,29405 23921,29972 23921,31105 29162,34505 30153,32946 31995,34080 30153,37196 30862,37621 30578,38046 30153,38613 29587,38188 27604,41587 29445,42862 29870,42296 33128,44562 32703,45129 32137,44704 31287,46262 28454,44562 28879,43995 28454,43712 28879,43287 27320,42296 22363,50653 21088,50653 21088,52353 19105,51078 20096,49520 15847,46545 15138,46545 12022,52070 12730,52919 13722,54761 13722,55611 16130,55611 16130,52919 19813,52919 19813,55894 21088,55894 "/>
  
  <polygon id="C" class="CCorp" points="35678,43712 35961,43145 36528,43429 37873,41233 33836,38471 35678,35496 34261,34646 32703,37338 32066,36700 31003,38329 30720,38046 30295,38613 30720,39038 30295,39746 31995,41021 31853,41304 "/>
  
  <polygon id="K" class="KCorp" points="36244,39887 37803,37479 37236,37054 37944,36063 37378,35638 38936,33230 35819,31105 33836,34292 35819,35496 33978,38471 "/>
  
  <polygon id="7" class="sevenCorp" points="52818,35780 54659,34788 53243,32238 55651,30822 54659,28980 52393,30255 51118,27847 49135,28839 50410,31247 48143,32663 49135,34363 51401,33230 "/>

  <polygon id="M" class="MCorp" points="38936,30963 40352,30113 40636,30538 42336,29830 40919,26997 38086,28980 "/>

  <polygon id="E" class="ECorp" points="41202,27280 42052,26430 43044,27280 43894,26289 43610,26006 46160,22464 46018,22323 46585,21614 45735,20906 46443,20198 45877,19914 40919,26855 "/>

  <polygon id="8" class="eightCorp" points="46302,22181 46727,22747 47435,21756 48710,22889 52959,17223 49701,14390 48143,16373 49560,17648 48002,19631 46727,18498 45877,19773 46585,20198 45877,20906 46727,21614 "/>
  
  <polygon id="O" class="OCorp" points="54093,21614 56501,18073 54801,16373 52251,19914 "/>
  
  <polygon id="T" class="TCorp" points="60184,17506 61459,15807 59617,14390 59900,14107 60184,14390 60892,13540 59688,12407 58909,13257 59475,13682 59192,13965 58201,12974 56926,14673 "/>

  <polygon id="P" class="PCorp" points="61742,11840 63158,10424 61600,8582 61317,8866 59900,7307 58626,8441 60042,9999 59759,10282 60255,10707 60467,10565 "/>

  <polygon id="4" class="fourCorp" points="66700,11840 67691,12832 67975,12549 68541,13398 69674,12407 69816,12690 70808,11840 70524,11557 71516,10707 70808,9999 70949,9716 70241,8724 69533,9432 67550,7307 68258,6599 67408,5749 67266,6033 66558,5324 65850,5962 65566,5749 64717,6458 65000,6741 63867,7732 64575,8582 64150,8866 65142,9999 65708,9432 67266,11274 "/>

  <polygon id="house1" class="unknownCorp" points="57492,18923 58909,16940 57067,15240 55792,17081 "/>
  <polygon id="house2" class="unknownCorp" points="56784,13115 59192,10849 58342,9999 58626,9716 57917,9007 57776,9149 57067,8441 54801,10565 55509,11415 55226,11699 55934,12407 56076,12265 "/>
  <polygon id="house3" class="unknownCorp" points="60892,8157 64858,4474 65850,5395 66558,4758 65637,3624 65425,3766 64717,2916 60042,7307 "/>  
</svg>